<svg width="2403" height="1128" xmlns="http://www.w3.org/2000/svg" xmlns:xlink="http://www.w3.org/1999/xlink" overflow="hidden"><defs><clipPath id="clip0"><rect x="296" y="653" width="2403" height="1128"/></clipPath></defs><g clip-path="url(#clip0)" transform="translate(-296 -653)"><path d="M740.5 1006.5 952.5 660.5 952.5 660.5 1164.5 1006.5Z" stroke="#FFFFFF" stroke-width="6.875" stroke-miterlimit="8" fill="#F8BB00" fill-rule="evenodd"/><text fill="#FFFFFF" font-family="Yu Gothic Medium,Yu Gothic Medium_MSFontService,sans-serif" font-weight="500" font-size="83" transform="matrix(1 0 0 1 855.855 957)">金賞</text><path d="M585.5 1258.5 739.913 1006.5 1165.09 1006.5 1319.5 1258.5Z" stroke="#FFFFFF" stroke-width="6.875" stroke-miterlimit="8" fill="#A9A9A9" fill-rule="evenodd"/><text fill="#FFFFFF" font-family="Yu Gothic Medium,Yu Gothic Medium_MSFontService,sans-serif" font-weight="500" font-size="83" transform="matrix(1 0 0 1 855.855 1209)">銀賞</text><path d="M431.5 1510.5 585.913 1258.5 1319.09 1258.5 1473.5 1510.5Z" stroke="#FFFFFF" stroke-width="6.875" stroke-miterlimit="8" fill="#C47022" fill-rule="evenodd"/><text fill="#FFFFFF" font-family="Yu Gothic Medium,Yu Gothic Medium_MSFontService,sans-serif" font-weight="500" font-size="83" transform="matrix(1 0 0 1 855.855 1461)">銅賞</text><path d="M302.5 1720.5 431.176 1510.5 1473.82 1510.5 1602.5 1720.5Z" stroke="#FFFFFF" stroke-width="6.875" stroke-miterlimit="8" fill="#00A99E" fill-rule="evenodd"/><text fill="#FFFFFF" font-family="Yu Gothic Medium,Yu Gothic Medium_MSFontService,sans-serif" font-weight="500" font-size="83" transform="matrix(1 0 0 1 807.73 1671)">努力賞</text><path d="M1115 1007 1985.22 1007" stroke="#4472C4" stroke-width="2.29167" stroke-miterlimit="8" fill="none" fill-rule="evenodd"/><text font-family="Yu Gothic,Yu Gothic_MSFontService,sans-serif" font-weight="400" font-size="83" transform="matrix(1 0 0 1 1856.56 966)">上位<tspan font-size="83" x="165" y="0">1/18</tspan><tspan font-size="83" x="342.604" y="0">位ボーダー</tspan></text><path d="M1237 1257 1985 1257" stroke="#4472C4" stroke-width="2.29167" stroke-miterlimit="8" fill="none" fill-rule="evenodd"/><text font-family="Yu Gothic,Yu Gothic_MSFontService,sans-serif" font-weight="400" font-size="83" transform="matrix(1 0 0 1 1856.56 1216)">上位<tspan font-size="83" x="165" y="0">3/18</tspan><tspan font-size="83" x="342.604" y="0">位ボーダー</tspan></text><path d="M1379 1507 1985.22 1507" stroke="#4472C4" stroke-width="2.29167" stroke-miterlimit="8" fill="none" fill-rule="evenodd"/><text font-family="Yu Gothic,Yu Gothic_MSFontService,sans-serif" font-weight="400" font-size="83" transform="matrix(1 0 0 1 1856.56 1466)">上位<tspan font-size="83" x="165" y="0">6/18</tspan><tspan font-size="83" x="342.604" y="0">位ボーダー</tspan></text><path d="M1486 1721 1984.67 1721" stroke="#4472C4" stroke-width="2.29167" stroke-miterlimit="8" fill="none" fill-rule="evenodd"/><text font-family="Yu Gothic,Yu Gothic_MSFontService,sans-serif" font-weight="400" font-size="83" transform="matrix(1 0 0 1 1856.56 1679)">平均点</text></g></svg>