<svg width="2413" height="1457" xmlns="http://www.w3.org/2000/svg" xmlns:xlink="http://www.w3.org/1999/xlink" overflow="hidden"><defs><clipPath id="clip0"><rect x="666" y="324" width="2595" height="1457"/></clipPath><linearGradient x1="731.5" y1="520" x2="731.5" y2="1735" gradientUnits="userSpaceOnUse" spreadMethod="reflect" id="fill1"><stop offset="0" stop-color="#0076BA"/><stop offset="0.01" stop-color="#0076BA"/><stop offset="0.01" stop-color="#0076BA" stop-opacity="0.301961"/><stop offset="1" stop-color="#0076BA" stop-opacity="0.301961"/></linearGradient><linearGradient x1="25.0001" y1="0" x2="25.0001" y2="529" gradientUnits="userSpaceOnUse" spreadMethod="reflect" id="fill2"><stop offset="0" stop-color="#0076BA"/><stop offset="0.01" stop-color="#0076BA"/><stop offset="0.01" stop-color="#0076BA" stop-opacity="0.301961"/><stop offset="1" stop-color="#0076BA" stop-opacity="0.301961"/></linearGradient><linearGradient x1="27.5" y1="0" x2="27.5" y2="681" gradientUnits="userSpaceOnUse" spreadMethod="reflect" id="fill3"><stop offset="0" stop-color="#0076BA"/><stop offset="0.01" stop-color="#0076BA"/><stop offset="0.01" stop-color="#0076BA" stop-opacity="0.301961"/><stop offset="1" stop-color="#0076BA" stop-opacity="0.301961"/></linearGradient><linearGradient x1="29.9999" y1="0" x2="29.9999" y2="835" gradientUnits="userSpaceOnUse" spreadMethod="reflect" id="fill4"><stop offset="0" stop-color="#0076BA"/><stop offset="0.01" stop-color="#0076BA"/><stop offset="0.01" stop-color="#0076BA" stop-opacity="0.301961"/><stop offset="1" stop-color="#0076BA" stop-opacity="0.301961"/></linearGradient><linearGradient x1="33.5" y1="0" x2="33.5" y2="1023" gradientUnits="userSpaceOnUse" spreadMethod="reflect" id="fill5"><stop offset="0" stop-color="#0076BA"/><stop offset="0.01" stop-color="#0076BA"/><stop offset="0.01" stop-color="#0076BA" stop-opacity="0.301961"/><stop offset="1" stop-color="#0076BA" stop-opacity="0.301961"/></linearGradient></defs><g clip-path="url(#clip0)" transform="translate(-666 -324)"><rect x="683" y="520" width="96.9999" height="1215" fill="url(#fill1)"/><path d="M765 531 2394.85 531" stroke="#4472C4" stroke-width="2.29167" stroke-miterlimit="8" fill="none" fill-rule="evenodd"/><text font-family="Yu Gothic,Yu Gothic_MSFontService,sans-serif" font-weight="400" font-size="83" transform="matrix(1 0 0 1 2237.39 654)">上位<tspan font-size="83" x="165" y="0">0</tspan><tspan font-size="83" x="210.833" y="0">-</tspan>3<tspan font-size="83" x="292.76" y="0">名</tspan></text><rect x="683" y="332" width="695" height="134" fill="#0076BA"/><text fill="#FFFFFF" font-family="Yu Gothic Medium,Yu Gothic Medium_MSFontService,sans-serif" font-weight="500" font-size="83" transform="matrix(1 0 0 1 716.333 425)">最優秀解答賞</text><path d="M732 1735 2394.85 1735" stroke="#4472C4" stroke-width="2.29167" stroke-miterlimit="8" fill="none" fill-rule="evenodd"/><text font-family="Yu Gothic,Yu Gothic_MSFontService,sans-serif" font-weight="400" font-size="83" transform="matrix(1 0 0 1 2237.39 1697)">全参加者<tspan font-size="83" x="353.49" y="0">約</tspan><tspan font-size="83" x="435.99" y="0">200</tspan>名</text><rect x="0" y="0" width="50.0002" height="529" fill="url(#fill2)" transform="matrix(-1 0 0 1 1399 856)"/><rect x="0" y="0" width="55" height="681" fill="url(#fill3)" transform="matrix(-1 0 0 1 1260 783)"/><rect x="0" y="0" width="59.9998" height="835" fill="url(#fill4)" transform="matrix(-1 0 0 1 1119 708)"/><rect x="0" y="0" width="67" height="1023" fill="url(#fill5)" transform="matrix(-1 0 0 1 947 619)"/><path d="M0 0 785.224 447.551" stroke="#4472C4" stroke-width="2.29167" stroke-miterlimit="8" fill="none" fill-rule="evenodd" transform="matrix(1 0 0 -1 701 1779.55)"/><path d="M0 0 1273.46 1.39593" stroke="#4472C4" stroke-width="2.29167" stroke-miterlimit="8" fill="none" fill-rule="evenodd" transform="matrix(1 0 0 -1 1125 1539.4)"/><text font-family="Yu Gothic,Yu Gothic_MSFontService,sans-serif" font-weight="400" font-size="83" transform="matrix(1 0 0 1 2237.39 1502)">問題ごとに授与（<tspan font-size="83" x="660" y="0">5</tspan><tspan font-size="83" x="705.833" y="0">問）</tspan><tspan font-size="73" x="87.7803" y="-652">かつ</tspan><tspan font-size="73" x="87.7803" y="-564">+</tspan><tspan font-size="73" x="190.905" y="-564">満点に近い点数</tspan><tspan font-size="73" x="87.7803" y="-476">+</tspan><tspan font-size="73" x="190.905" y="-476">エレガントな答案</tspan><tspan font-size="73" x="87.7803" y="-388">+</tspan><tspan font-size="73" x="190.905" y="-388">正解を超えた</tspan><tspan font-size="73" x="190.905" y="-300">本質的理解</tspan></text><path d="M2204 534 2204 1214.15" stroke="#4472C4" stroke-width="2.29167" stroke-miterlimit="8" fill="none" fill-rule="evenodd"/></g></svg>