<?xml version="1.0" encoding="utf-8"?><svg version="1.1" xmlns="http://www.w3.org/2000/svg" xmlns:xlink="http://www.w3.org/1999/xlink" width="490px" height="490px" viewBox="0 0 490 490"><rect x="0" y="0" width="70" height="10"></rect><rect x="80" y="0" width="40" height="10"></rect><rect x="130" y="0" width="10" height="10"></rect><rect x="150" y="0" width="10" height="10"></rect><rect x="180" y="0" width="20" height="10"></rect><rect x="210" y="0" width="20" height="10"></rect><rect x="250" y="0" width="40" height="10"></rect><rect x="320" y="0" width="10" height="10"></rect><rect x="350" y="0" width="10" height="10"></rect><rect x="400" y="0" width="10" height="10"></rect><rect x="420" y="0" width="70" height="10"></rect><rect x="0" y="10" width="10" height="10"></rect><rect x="60" y="10" width="10" height="10"></rect><rect x="80" y="10" width="10" height="10"></rect><rect x="100" y="10" width="10" height="10"></rect><rect x="140" y="10" width="10" height="10"></rect><rect x="160" y="10" width="20" height="10"></rect><rect x="190" y="10" width="20" height="10"></rect><rect x="220" y="10" width="50" height="10"></rect><rect x="290" y="10" width="10" height="10"></rect><rect x="320" y="10" width="40" height="10"></rect><rect x="370" y="10" width="40" height="10"></rect><rect x="420" y="10" width="10" height="10"></rect><rect x="480" y="10" width="10" height="10"></rect><rect x="0" y="20" width="10" height="10"></rect><rect x="20" y="20" width="30" height="10"></rect><rect x="60" y="20" width="10" height="10"></rect><rect x="80" y="20" width="10" height="10"></rect><rect x="100" y="20" width="10" height="10"></rect><rect x="130" y="20" width="20" height="10"></rect><rect x="160" y="20" width="10" height="10"></rect><rect x="180" y="20" width="20" height="10"></rect><rect x="210" y="20" width="30" height="10"></rect><rect x="270" y="20" width="10" height="10"></rect><rect x="290" y="20" width="20" height="10"></rect><rect x="320" y="20" width="10" height="10"></rect><rect x="350" y="20" width="10" height="10"></rect><rect x="390" y="20" width="20" height="10"></rect><rect x="420" y="20" width="10" height="10"></rect><rect x="440" y="20" width="30" height="10"></rect><rect x="480" y="20" width="10" height="10"></rect><rect x="0" y="30" width="10" height="10"></rect><rect x="20" y="30" width="30" height="10"></rect><rect x="60" y="30" width="10" height="10"></rect><rect x="90" y="30" width="20" height="10"></rect><rect x="130" y="30" width="10" height="10"></rect><rect x="150" y="30" width="10" height="10"></rect><rect x="180" y="30" width="10" height="10"></rect><rect x="200" y="30" width="20" height="10"></rect><rect x="230" y="30" width="10" height="10"></rect><rect x="250" y="30" width="10" height="10"></rect><rect x="280" y="30" width="20" height="10"></rect><rect x="310" y="30" width="20" height="10"></rect><rect x="340" y="30" width="30" height="10"></rect><rect x="390" y="30" width="10" height="10"></rect><rect x="420" y="30" width="10" height="10"></rect><rect x="440" y="30" width="30" height="10"></rect><rect x="480" y="30" width="10" height="10"></rect><rect x="0" y="40" width="10" height="10"></rect><rect x="20" y="40" width="30" height="10"></rect><rect x="60" y="40" width="10" height="10"></rect><rect x="100" y="40" width="10" height="10"></rect><rect x="140" y="40" width="10" height="10"></rect><rect x="160" y="40" width="120" height="10"></rect><rect x="310" y="40" width="30" height="10"></rect><rect x="350" y="40" width="30" height="10"></rect><rect x="420" y="40" width="10" height="10"></rect><rect x="440" y="40" width="30" height="10"></rect><rect x="480" y="40" width="10" height="10"></rect><rect x="0" y="50" width="10" height="10"></rect><rect x="60" y="50" width="10" height="10"></rect><rect x="80" y="50" width="60" height="10"></rect><rect x="170" y="50" width="10" height="10"></rect><rect x="200" y="50" width="10" height="10"></rect><rect x="220" y="50" width="10" height="10"></rect><rect x="260" y="50" width="20" height="10"></rect><rect x="310" y="50" width="10" height="10"></rect><rect x="340" y="50" width="20" height="10"></rect><rect x="370" y="50" width="20" height="10"></rect><rect x="420" y="50" width="10" height="10"></rect><rect x="480" y="50" width="10" height="10"></rect><rect x="0" y="60" width="70" height="10"></rect><rect x="80" y="60" width="10" height="10"></rect><rect x="100" y="60" width="10" height="10"></rect><rect x="120" y="60" width="10" height="10"></rect><rect x="140" y="60" width="10" height="10"></rect><rect x="160" y="60" width="10" height="10"></rect><rect x="180" y="60" width="10" height="10"></rect><rect x="200" y="60" width="10" height="10"></rect><rect x="220" y="60" width="10" height="10"></rect><rect x="240" y="60" width="10" height="10"></rect><rect x="260" y="60" width="10" height="10"></rect><rect x="280" y="60" width="10" height="10"></rect><rect x="300" y="60" width="10" height="10"></rect><rect x="320" y="60" width="10" height="10"></rect><rect x="340" y="60" width="10" height="10"></rect><rect x="360" y="60" width="10" height="10"></rect><rect x="380" y="60" width="10" height="10"></rect><rect x="400" y="60" width="10" height="10"></rect><rect x="420" y="60" width="70" height="10"></rect><rect x="80" y="70" width="10" height="10"></rect><rect x="100" y="70" width="40" height="10"></rect><rect x="150" y="70" width="10" height="10"></rect><rect x="170" y="70" width="10" height="10"></rect><rect x="190" y="70" width="40" height="10"></rect><rect x="260" y="70" width="10" height="10"></rect><rect x="290" y="70" width="30" height="10"></rect><rect x="360" y="70" width="50" height="10"></rect><rect x="20" y="80" width="30" height="10"></rect><rect x="60" y="80" width="10" height="10"></rect><rect x="80" y="80" width="30" height="10"></rect><rect x="130" y="80" width="20" height="10"></rect><rect x="160" y="80" width="10" height="10"></rect><rect x="220" y="80" width="50" height="10"></rect><rect x="280" y="80" width="10" height="10"></rect><rect x="300" y="80" width="10" height="10"></rect><rect x="330" y="80" width="10" height="10"></rect><rect x="360" y="80" width="20" height="10"></rect><rect x="400" y="80" width="40" height="10"></rect><rect x="460" y="80" width="30" height="10"></rect><rect x="0" y="90" width="10" height="10"></rect><rect x="30" y="90" width="10" height="10"></rect><rect x="50" y="90" width="10" height="10"></rect><rect x="70" y="90" width="10" height="10"></rect><rect x="110" y="90" width="20" height="10"></rect><rect x="160" y="90" width="30" height="10"></rect><rect x="200" y="90" width="10" height="10"></rect><rect x="220" y="90" width="30" height="10"></rect><rect x="270" y="90" width="10" height="10"></rect><rect x="290" y="90" width="40" height="10"></rect><rect x="350" y="90" width="30" height="10"></rect><rect x="410" y="90" width="20" height="10"></rect><rect x="460" y="90" width="20" height="10"></rect><rect x="10" y="100" width="60" height="10"></rect><rect x="90" y="100" width="30" height="10"></rect><rect x="140" y="100" width="10" height="10"></rect><rect x="160" y="100" width="10" height="10"></rect><rect x="190" y="100" width="50" height="10"></rect><rect x="260" y="100" width="10" height="10"></rect><rect x="280" y="100" width="20" height="10"></rect><rect x="310" y="100" width="20" height="10"></rect><rect x="370" y="100" width="10" height="10"></rect><rect x="390" y="100" width="30" height="10"></rect><rect x="480" y="100" width="10" height="10"></rect><rect x="0" y="110" width="10" height="10"></rect><rect x="50" y="110" width="10" height="10"></rect><rect x="100" y="110" width="10" height="10"></rect><rect x="130" y="110" width="10" height="10"></rect><rect x="160" y="110" width="20" height="10"></rect><rect x="230" y="110" width="30" height="10"></rect><rect x="270" y="110" width="10" height="10"></rect><rect x="290" y="110" width="10" height="10"></rect><rect x="320" y="110" width="20" height="10"></rect><rect x="350" y="110" width="10" height="10"></rect><rect x="380" y="110" width="50" height="10"></rect><rect x="440" y="110" width="10" height="10"></rect><rect x="470" y="110" width="20" height="10"></rect><rect x="40" y="120" width="10" height="10"></rect><rect x="60" y="120" width="10" height="10"></rect><rect x="80" y="120" width="10" height="10"></rect><rect x="100" y="120" width="50" height="10"></rect><rect x="170" y="120" width="10" height="10"></rect><rect x="190" y="120" width="10" height="10"></rect><rect x="270" y="120" width="10" height="10"></rect><rect x="290" y="120" width="30" height="10"></rect><rect x="330" y="120" width="10" height="10"></rect><rect x="360" y="120" width="50" height="10"></rect><rect x="470" y="120" width="20" height="10"></rect><rect x="20" y="130" width="30" height="10"></rect><rect x="70" y="130" width="30" height="10"></rect><rect x="110" y="130" width="10" height="10"></rect><rect x="140" y="130" width="10" height="10"></rect><rect x="170" y="130" width="20" height="10"></rect><rect x="200" y="130" width="10" height="10"></rect><rect x="260" y="130" width="10" height="10"></rect><rect x="280" y="130" width="40" height="10"></rect><rect x="370" y="130" width="10" height="10"></rect><rect x="390" y="130" width="10" height="10"></rect><rect x="410" y="130" width="20" height="10"></rect><rect x="440" y="130" width="40" height="10"></rect><rect x="10" y="140" width="20" height="10"></rect><rect x="40" y="140" width="50" height="10"></rect><rect x="100" y="140" width="10" height="10"></rect><rect x="120" y="140" width="20" height="10"></rect><rect x="150" y="140" width="10" height="10"></rect><rect x="170" y="140" width="20" height="10"></rect><rect x="240" y="140" width="10" height="10"></rect><rect x="270" y="140" width="10" height="10"></rect><rect x="310" y="140" width="20" height="10"></rect><rect x="350" y="140" width="10" height="10"></rect><rect x="390" y="140" width="20" height="10"></rect><rect x="420" y="140" width="10" height="10"></rect><rect x="440" y="140" width="20" height="10"></rect><rect x="470" y="140" width="20" height="10"></rect><rect x="10" y="150" width="20" height="10"></rect><rect x="40" y="150" width="10" height="10"></rect><rect x="70" y="150" width="10" height="10"></rect><rect x="100" y="150" width="10" height="10"></rect><rect x="120" y="150" width="20" height="10"></rect><rect x="150" y="150" width="10" height="10"></rect><rect x="190" y="150" width="10" height="10"></rect><rect x="250" y="150" width="10" height="10"></rect><rect x="280" y="150" width="30" height="10"></rect><rect x="320" y="150" width="10" height="10"></rect><rect x="340" y="150" width="20" height="10"></rect><rect x="390" y="150" width="20" height="10"></rect><rect x="440" y="150" width="10" height="10"></rect><rect x="470" y="150" width="20" height="10"></rect><rect x="0" y="160" width="50" height="10"></rect><rect x="60" y="160" width="10" height="10"></rect><rect x="80" y="160" width="20" height="10"></rect><rect x="120" y="160" width="10" height="10"></rect><rect x="140" y="160" width="10" height="10"></rect><rect x="170" y="160" width="20" height="10"></rect><rect x="200" y="160" width="20" height="10"></rect><rect x="230" y="160" width="20" height="10"></rect><rect x="260" y="160" width="20" height="10"></rect><rect x="330" y="160" width="20" height="10"></rect><rect x="360" y="160" width="20" height="10"></rect><rect x="430" y="160" width="10" height="10"></rect><rect x="450" y="160" width="10" height="10"></rect><rect x="470" y="160" width="20" height="10"></rect><rect x="40" y="170" width="20" height="10"></rect><rect x="110" y="170" width="10" height="10"></rect><rect x="150" y="170" width="20" height="10"></rect><rect x="210" y="170" width="10" height="10"></rect><rect x="230" y="170" width="30" height="10"></rect><rect x="290" y="170" width="10" height="10"></rect><rect x="310" y="170" width="20" height="10"></rect><rect x="340" y="170" width="20" height="10"></rect><rect x="370" y="170" width="10" height="10"></rect><rect x="410" y="170" width="30" height="10"></rect><rect x="450" y="170" width="20" height="10"></rect><rect x="0" y="180" width="10" height="10"></rect><rect x="20" y="180" width="20" height="10"></rect><rect x="50" y="180" width="30" height="10"></rect><rect x="90" y="180" width="30" height="10"></rect><rect x="150" y="180" width="20" height="10"></rect><rect x="190" y="180" width="20" height="10"></rect><rect x="220" y="180" width="60" height="10"></rect><rect x="300" y="180" width="20" height="10"></rect><rect x="330" y="180" width="10" height="10"></rect><rect x="350" y="180" width="10" height="10"></rect><rect x="370" y="180" width="10" height="10"></rect><rect x="420" y="180" width="10" height="10"></rect><rect x="450" y="180" width="10" height="10"></rect><rect x="470" y="180" width="20" height="10"></rect><rect x="0" y="190" width="10" height="10"></rect><rect x="20" y="190" width="20" height="10"></rect><rect x="50" y="190" width="10" height="10"></rect><rect x="110" y="190" width="10" height="10"></rect><rect x="140" y="190" width="40" height="10"></rect><rect x="200" y="190" width="20" height="10"></rect><rect x="230" y="190" width="20" height="10"></rect><rect x="270" y="190" width="40" height="10"></rect><rect x="320" y="190" width="10" height="10"></rect><rect x="350" y="190" width="10" height="10"></rect><rect x="370" y="190" width="30" height="10"></rect><rect x="420" y="190" width="30" height="10"></rect><rect x="470" y="190" width="20" height="10"></rect><rect x="0" y="200" width="40" height="10"></rect><rect x="50" y="200" width="40" height="10"></rect><rect x="110" y="200" width="60" height="10"></rect><rect x="190" y="200" width="10" height="10"></rect><rect x="240" y="200" width="10" height="10"></rect><rect x="260" y="200" width="20" height="10"></rect><rect x="290" y="200" width="10" height="10"></rect><rect x="330" y="200" width="10" height="10"></rect><rect x="360" y="200" width="50" height="10"></rect><rect x="420" y="200" width="20" height="10"></rect><rect x="460" y="200" width="10" height="10"></rect><rect x="20" y="210" width="10" height="10"></rect><rect x="40" y="210" width="20" height="10"></rect><rect x="110" y="210" width="20" height="10"></rect><rect x="140" y="210" width="40" height="10"></rect><rect x="190" y="210" width="10" height="10"></rect><rect x="260" y="210" width="20" height="10"></rect><rect x="410" y="210" width="20" height="10"></rect><rect x="460" y="210" width="10" height="10"></rect><rect x="10" y="220" width="80" height="10"></rect><rect x="100" y="220" width="20" height="10"></rect><rect x="130" y="220" width="10" height="10"></rect><rect x="190" y="220" width="90" height="10"></rect><rect x="300" y="220" width="70" height="10"></rect><rect x="380" y="220" width="10" height="10"></rect><rect x="400" y="220" width="50" height="10"></rect><rect x="460" y="220" width="30" height="10"></rect><rect x="20" y="230" width="30" height="10"></rect><rect x="80" y="230" width="10" height="10"></rect><rect x="110" y="230" width="10" height="10"></rect><rect x="140" y="230" width="30" height="10"></rect><rect x="220" y="230" width="10" height="10"></rect><rect x="260" y="230" width="10" height="10"></rect><rect x="290" y="230" width="30" height="10"></rect><rect x="340" y="230" width="10" height="10"></rect><rect x="400" y="230" width="10" height="10"></rect><rect x="440" y="230" width="20" height="10"></rect><rect x="480" y="230" width="10" height="10"></rect><rect x="40" y="240" width="10" height="10"></rect><rect x="60" y="240" width="10" height="10"></rect><rect x="80" y="240" width="10" height="10"></rect><rect x="100" y="240" width="20" height="10"></rect><rect x="130" y="240" width="10" height="10"></rect><rect x="190" y="240" width="10" height="10"></rect><rect x="220" y="240" width="10" height="10"></rect><rect x="240" y="240" width="10" height="10"></rect><rect x="260" y="240" width="30" height="10"></rect><rect x="340" y="240" width="30" height="10"></rect><rect x="390" y="240" width="20" height="10"></rect><rect x="420" y="240" width="10" height="10"></rect><rect x="440" y="240" width="30" height="10"></rect><rect x="480" y="240" width="10" height="10"></rect><rect x="0" y="250" width="10" height="10"></rect><rect x="20" y="250" width="30" height="10"></rect><rect x="80" y="250" width="10" height="10"></rect><rect x="140" y="250" width="30" height="10"></rect><rect x="180" y="250" width="30" height="10"></rect><rect x="220" y="250" width="10" height="10"></rect><rect x="260" y="250" width="10" height="10"></rect><rect x="280" y="250" width="40" height="10"></rect><rect x="390" y="250" width="20" height="10"></rect><rect x="440" y="250" width="20" height="10"></rect><rect x="0" y="260" width="10" height="10"></rect><rect x="20" y="260" width="70" height="10"></rect><rect x="100" y="260" width="20" height="10"></rect><rect x="210" y="260" width="60" height="10"></rect><rect x="280" y="260" width="10" height="10"></rect><rect x="300" y="260" width="10" height="10"></rect><rect x="330" y="260" width="20" height="10"></rect><rect x="380" y="260" width="10" height="10"></rect><rect x="400" y="260" width="50" height="10"></rect><rect x="460" y="260" width="30" height="10"></rect><rect x="0" y="270" width="10" height="10"></rect><rect x="20" y="270" width="40" height="10"></rect><rect x="100" y="270" width="10" height="10"></rect><rect x="120" y="270" width="40" height="10"></rect><rect x="170" y="270" width="30" height="10"></rect><rect x="210" y="270" width="10" height="10"></rect><rect x="240" y="270" width="60" height="10"></rect><rect x="310" y="270" width="10" height="10"></rect><rect x="370" y="270" width="10" height="10"></rect><rect x="410" y="270" width="10" height="10"></rect><rect x="430" y="270" width="10" height="10"></rect><rect x="450" y="270" width="10" height="10"></rect><rect x="470" y="270" width="10" height="10"></rect><rect x="0" y="280" width="10" height="10"></rect><rect x="20" y="280" width="10" height="10"></rect><rect x="60" y="280" width="40" height="10"></rect><rect x="110" y="280" width="10" height="10"></rect><rect x="140" y="280" width="40" height="10"></rect><rect x="220" y="280" width="20" height="10"></rect><rect x="260" y="280" width="10" height="10"></rect><rect x="290" y="280" width="10" height="10"></rect><rect x="310" y="280" width="10" height="10"></rect><rect x="330" y="280" width="20" height="10"></rect><rect x="360" y="280" width="20" height="10"></rect><rect x="390" y="280" width="10" height="10"></rect><rect x="420" y="280" width="10" height="10"></rect><rect x="440" y="280" width="50" height="10"></rect><rect x="40" y="290" width="20" height="10"></rect><rect x="70" y="290" width="10" height="10"></rect><rect x="130" y="290" width="10" height="10"></rect><rect x="220" y="290" width="30" height="10"></rect><rect x="260" y="290" width="10" height="10"></rect><rect x="280" y="290" width="40" height="10"></rect><rect x="330" y="290" width="10" height="10"></rect><rect x="350" y="290" width="20" height="10"></rect><rect x="390" y="290" width="30" height="10"></rect><rect x="430" y="290" width="10" height="10"></rect><rect x="480" y="290" width="10" height="10"></rect><rect x="0" y="300" width="20" height="10"></rect><rect x="30" y="300" width="10" height="10"></rect><rect x="50" y="300" width="20" height="10"></rect><rect x="100" y="300" width="20" height="10"></rect><rect x="130" y="300" width="30" height="10"></rect><rect x="170" y="300" width="40" height="10"></rect><rect x="220" y="300" width="20" height="10"></rect><rect x="250" y="300" width="20" height="10"></rect><rect x="310" y="300" width="10" height="10"></rect><rect x="340" y="300" width="70" height="10"></rect><rect x="420" y="300" width="10" height="10"></rect><rect x="440" y="300" width="10" height="10"></rect><rect x="460" y="300" width="30" height="10"></rect><rect x="10" y="310" width="10" height="10"></rect><rect x="30" y="310" width="30" height="10"></rect><rect x="70" y="310" width="10" height="10"></rect><rect x="90" y="310" width="40" height="10"></rect><rect x="140" y="310" width="30" height="10"></rect><rect x="200" y="310" width="10" height="10"></rect><rect x="230" y="310" width="10" height="10"></rect><rect x="260" y="310" width="50" height="10"></rect><rect x="330" y="310" width="30" height="10"></rect><rect x="380" y="310" width="10" height="10"></rect><rect x="450" y="310" width="10" height="10"></rect><rect x="480" y="310" width="10" height="10"></rect><rect x="20" y="320" width="10" height="10"></rect><rect x="40" y="320" width="30" height="10"></rect><rect x="80" y="320" width="40" height="10"></rect><rect x="150" y="320" width="10" height="10"></rect><rect x="180" y="320" width="40" height="10"></rect><rect x="230" y="320" width="10" height="10"></rect><rect x="250" y="320" width="10" height="10"></rect><rect x="270" y="320" width="10" height="10"></rect><rect x="290" y="320" width="40" height="10"></rect><rect x="360" y="320" width="20" height="10"></rect><rect x="390" y="320" width="10" height="10"></rect><rect x="410" y="320" width="10" height="10"></rect><rect x="460" y="320" width="10" height="10"></rect><rect x="30" y="330" width="10" height="10"></rect><rect x="90" y="330" width="10" height="10"></rect><rect x="110" y="330" width="20" height="10"></rect><rect x="140" y="330" width="20" height="10"></rect><rect x="170" y="330" width="20" height="10"></rect><rect x="230" y="330" width="10" height="10"></rect><rect x="250" y="330" width="10" height="10"></rect><rect x="270" y="330" width="10" height="10"></rect><rect x="320" y="330" width="10" height="10"></rect><rect x="360" y="330" width="10" height="10"></rect><rect x="390" y="330" width="10" height="10"></rect><rect x="410" y="330" width="10" height="10"></rect><rect x="430" y="330" width="10" height="10"></rect><rect x="450" y="330" width="10" height="10"></rect><rect x="470" y="330" width="10" height="10"></rect><rect x="10" y="340" width="10" height="10"></rect><rect x="30" y="340" width="50" height="10"></rect><rect x="110" y="340" width="40" height="10"></rect><rect x="160" y="340" width="10" height="10"></rect><rect x="190" y="340" width="30" height="10"></rect><rect x="230" y="340" width="10" height="10"></rect><rect x="270" y="340" width="30" height="10"></rect><rect x="310" y="340" width="40" height="10"></rect><rect x="360" y="340" width="30" height="10"></rect><rect x="420" y="340" width="30" height="10"></rect><rect x="460" y="340" width="10" height="10"></rect><rect x="480" y="340" width="10" height="10"></rect><rect x="20" y="350" width="30" height="10"></rect><rect x="80" y="350" width="10" height="10"></rect><rect x="100" y="350" width="30" height="10"></rect><rect x="200" y="350" width="20" height="10"></rect><rect x="270" y="350" width="10" height="10"></rect><rect x="310" y="350" width="10" height="10"></rect><rect x="360" y="350" width="10" height="10"></rect><rect x="380" y="350" width="10" height="10"></rect><rect x="400" y="350" width="20" height="10"></rect><rect x="450" y="350" width="10" height="10"></rect><rect x="20" y="360" width="10" height="10"></rect><rect x="40" y="360" width="10" height="10"></rect><rect x="60" y="360" width="50" height="10"></rect><rect x="120" y="360" width="10" height="10"></rect><rect x="140" y="360" width="10" height="10"></rect><rect x="180" y="360" width="20" height="10"></rect><rect x="220" y="360" width="50" height="10"></rect><rect x="280" y="360" width="10" height="10"></rect><rect x="310" y="360" width="10" height="10"></rect><rect x="350" y="360" width="20" height="10"></rect><rect x="380" y="360" width="70" height="10"></rect><rect x="460" y="360" width="10" height="10"></rect><rect x="480" y="360" width="10" height="10"></rect><rect x="20" y="370" width="10" height="10"></rect><rect x="40" y="370" width="20" height="10"></rect><rect x="70" y="370" width="30" height="10"></rect><rect x="130" y="370" width="10" height="10"></rect><rect x="150" y="370" width="10" height="10"></rect><rect x="170" y="370" width="10" height="10"></rect><rect x="190" y="370" width="30" height="10"></rect><rect x="230" y="370" width="10" height="10"></rect><rect x="290" y="370" width="30" height="10"></rect><rect x="330" y="370" width="10" height="10"></rect><rect x="360" y="370" width="20" height="10"></rect><rect x="390" y="370" width="30" height="10"></rect><rect x="430" y="370" width="10" height="10"></rect><rect x="470" y="370" width="10" height="10"></rect><rect x="10" y="380" width="10" height="10"></rect><rect x="50" y="380" width="20" height="10"></rect><rect x="80" y="380" width="10" height="10"></rect><rect x="100" y="380" width="10" height="10"></rect><rect x="130" y="380" width="10" height="10"></rect><rect x="160" y="380" width="30" height="10"></rect><rect x="210" y="380" width="30" height="10"></rect><rect x="310" y="380" width="10" height="10"></rect><rect x="340" y="380" width="30" height="10"></rect><rect x="400" y="380" width="90" height="10"></rect><rect x="10" y="390" width="30" height="10"></rect><rect x="70" y="390" width="10" height="10"></rect><rect x="100" y="390" width="20" height="10"></rect><rect x="140" y="390" width="20" height="10"></rect><rect x="170" y="390" width="20" height="10"></rect><rect x="200" y="390" width="30" height="10"></rect><rect x="250" y="390" width="20" height="10"></rect><rect x="280" y="390" width="10" height="10"></rect><rect x="300" y="390" width="40" height="10"></rect><rect x="370" y="390" width="10" height="10"></rect><rect x="430" y="390" width="20" height="10"></rect><rect x="0" y="400" width="30" height="10"></rect><rect x="60" y="400" width="20" height="10"></rect><rect x="90" y="400" width="10" height="10"></rect><rect x="120" y="400" width="20" height="10"></rect><rect x="160" y="400" width="20" height="10"></rect><rect x="190" y="400" width="10" height="10"></rect><rect x="210" y="400" width="70" height="10"></rect><rect x="300" y="400" width="20" height="10"></rect><rect x="350" y="400" width="20" height="10"></rect><rect x="390" y="400" width="90" height="10"></rect><rect x="80" y="410" width="60" height="10"></rect><rect x="180" y="410" width="50" height="10"></rect><rect x="260" y="410" width="30" height="10"></rect><rect x="300" y="410" width="40" height="10"></rect><rect x="360" y="410" width="10" height="10"></rect><rect x="400" y="410" width="10" height="10"></rect><rect x="440" y="410" width="10" height="10"></rect><rect x="470" y="410" width="10" height="10"></rect><rect x="0" y="420" width="70" height="10"></rect><rect x="120" y="420" width="20" height="10"></rect><rect x="150" y="420" width="30" height="10"></rect><rect x="190" y="420" width="20" height="10"></rect><rect x="220" y="420" width="10" height="10"></rect><rect x="240" y="420" width="10" height="10"></rect><rect x="260" y="420" width="20" height="10"></rect><rect x="290" y="420" width="20" height="10"></rect><rect x="320" y="420" width="10" height="10"></rect><rect x="360" y="420" width="30" height="10"></rect><rect x="400" y="420" width="10" height="10"></rect><rect x="420" y="420" width="10" height="10"></rect><rect x="440" y="420" width="20" height="10"></rect><rect x="470" y="420" width="20" height="10"></rect><rect x="0" y="430" width="10" height="10"></rect><rect x="60" y="430" width="10" height="10"></rect><rect x="100" y="430" width="10" height="10"></rect><rect x="130" y="430" width="30" height="10"></rect><rect x="170" y="430" width="10" height="10"></rect><rect x="190" y="430" width="10" height="10"></rect><rect x="210" y="430" width="20" height="10"></rect><rect x="260" y="430" width="10" height="10"></rect><rect x="280" y="430" width="50" height="10"></rect><rect x="340" y="430" width="20" height="10"></rect><rect x="370" y="430" width="40" height="10"></rect><rect x="440" y="430" width="10" height="10"></rect><rect x="470" y="430" width="10" height="10"></rect><rect x="0" y="440" width="10" height="10"></rect><rect x="20" y="440" width="30" height="10"></rect><rect x="60" y="440" width="10" height="10"></rect><rect x="80" y="440" width="20" height="10"></rect><rect x="110" y="440" width="10" height="10"></rect><rect x="130" y="440" width="10" height="10"></rect><rect x="150" y="440" width="20" height="10"></rect><rect x="180" y="440" width="10" height="10"></rect><rect x="200" y="440" width="10" height="10"></rect><rect x="220" y="440" width="60" height="10"></rect><rect x="290" y="440" width="20" height="10"></rect><rect x="340" y="440" width="10" height="10"></rect><rect x="360" y="440" width="90" height="10"></rect><rect x="460" y="440" width="10" height="10"></rect><rect x="0" y="450" width="10" height="10"></rect><rect x="20" y="450" width="30" height="10"></rect><rect x="60" y="450" width="10" height="10"></rect><rect x="80" y="450" width="20" height="10"></rect><rect x="110" y="450" width="10" height="10"></rect><rect x="130" y="450" width="10" height="10"></rect><rect x="150" y="450" width="10" height="10"></rect><rect x="170" y="450" width="30" height="10"></rect><rect x="210" y="450" width="10" height="10"></rect><rect x="230" y="450" width="40" height="10"></rect><rect x="280" y="450" width="50" height="10"></rect><rect x="360" y="450" width="20" height="10"></rect><rect x="410" y="450" width="10" height="10"></rect><rect x="440" y="450" width="10" height="10"></rect><rect x="460" y="450" width="30" height="10"></rect><rect x="0" y="460" width="10" height="10"></rect><rect x="20" y="460" width="30" height="10"></rect><rect x="60" y="460" width="10" height="10"></rect><rect x="80" y="460" width="40" height="10"></rect><rect x="130" y="460" width="10" height="10"></rect><rect x="150" y="460" width="10" height="10"></rect><rect x="180" y="460" width="20" height="10"></rect><rect x="210" y="460" width="10" height="10"></rect><rect x="250" y="460" width="60" height="10"></rect><rect x="330" y="460" width="20" height="10"></rect><rect x="370" y="460" width="20" height="10"></rect><rect x="430" y="460" width="10" height="10"></rect><rect x="470" y="460" width="20" height="10"></rect><rect x="0" y="470" width="10" height="10"></rect><rect x="60" y="470" width="10" height="10"></rect><rect x="100" y="470" width="10" height="10"></rect><rect x="120" y="470" width="10" height="10"></rect><rect x="140" y="470" width="20" height="10"></rect><rect x="170" y="470" width="10" height="10"></rect><rect x="200" y="470" width="40" height="10"></rect><rect x="250" y="470" width="10" height="10"></rect><rect x="270" y="470" width="20" height="10"></rect><rect x="300" y="470" width="10" height="10"></rect><rect x="320" y="470" width="10" height="10"></rect><rect x="340" y="470" width="20" height="10"></rect><rect x="370" y="470" width="80" height="10"></rect><rect x="480" y="470" width="10" height="10"></rect><rect x="0" y="480" width="70" height="10"></rect><rect x="90" y="480" width="10" height="10"></rect><rect x="120" y="480" width="10" height="10"></rect><rect x="160" y="480" width="30" height="10"></rect><rect x="210" y="480" width="10" height="10"></rect><rect x="240" y="480" width="10" height="10"></rect><rect x="260" y="480" width="30" height="10"></rect><rect x="300" y="480" width="10" height="10"></rect><rect x="350" y="480" width="20" height="10"></rect><rect x="380" y="480" width="110" height="10"></rect></svg>