<?xml version="1.0" encoding="utf-8"?><svg version="1.1" xmlns="http://www.w3.org/2000/svg" xmlns:xlink="http://www.w3.org/1999/xlink" width="200px" height="200px" viewBox="0 0 490 490"><rect x="0" y="0" width="70" height="10"></rect><rect x="170" y="0" width="20" height="10"></rect><rect x="200" y="0" width="10" height="10"></rect><rect x="220" y="0" width="30" height="10"></rect><rect x="260" y="0" width="10" height="10"></rect><rect x="280" y="0" width="10" height="10"></rect><rect x="310" y="0" width="30" height="10"></rect><rect x="360" y="0" width="10" height="10"></rect><rect x="400" y="0" width="10" height="10"></rect><rect x="420" y="0" width="70" height="10"></rect><rect x="0" y="10" width="10" height="10"></rect><rect x="60" y="10" width="10" height="10"></rect><rect x="90" y="10" width="30" height="10"></rect><rect x="130" y="10" width="20" height="10"></rect><rect x="170" y="10" width="20" height="10"></rect><rect x="200" y="10" width="10" height="10"></rect><rect x="220" y="10" width="10" height="10"></rect><rect x="250" y="10" width="20" height="10"></rect><rect x="280" y="10" width="10" height="10"></rect><rect x="310" y="10" width="40" height="10"></rect><rect x="370" y="10" width="40" height="10"></rect><rect x="420" y="10" width="10" height="10"></rect><rect x="480" y="10" width="10" height="10"></rect><rect x="0" y="20" width="10" height="10"></rect><rect x="20" y="20" width="30" height="10"></rect><rect x="60" y="20" width="10" height="10"></rect><rect x="90" y="20" width="10" height="10"></rect><rect x="140" y="20" width="10" height="10"></rect><rect x="170" y="20" width="10" height="10"></rect><rect x="210" y="20" width="10" height="10"></rect><rect x="230" y="20" width="20" height="10"></rect><rect x="260" y="20" width="10" height="10"></rect><rect x="290" y="20" width="10" height="10"></rect><rect x="310" y="20" width="10" height="10"></rect><rect x="340" y="20" width="10" height="10"></rect><rect x="360" y="20" width="20" height="10"></rect><rect x="390" y="20" width="20" height="10"></rect><rect x="420" y="20" width="10" height="10"></rect><rect x="440" y="20" width="30" height="10"></rect><rect x="480" y="20" width="10" height="10"></rect><rect x="0" y="30" width="10" height="10"></rect><rect x="20" y="30" width="30" height="10"></rect><rect x="60" y="30" width="10" height="10"></rect><rect x="100" y="30" width="10" height="10"></rect><rect x="120" y="30" width="10" height="10"></rect><rect x="140" y="30" width="10" height="10"></rect><rect x="160" y="30" width="10" height="10"></rect><rect x="190" y="30" width="10" height="10"></rect><rect x="220" y="30" width="10" height="10"></rect><rect x="250" y="30" width="20" height="10"></rect><rect x="290" y="30" width="10" height="10"></rect><rect x="320" y="30" width="60" height="10"></rect><rect x="390" y="30" width="10" height="10"></rect><rect x="420" y="30" width="10" height="10"></rect><rect x="440" y="30" width="30" height="10"></rect><rect x="480" y="30" width="10" height="10"></rect><rect x="0" y="40" width="10" height="10"></rect><rect x="20" y="40" width="30" height="10"></rect><rect x="60" y="40" width="10" height="10"></rect><rect x="80" y="40" width="20" height="10"></rect><rect x="120" y="40" width="10" height="10"></rect><rect x="160" y="40" width="10" height="10"></rect><rect x="210" y="40" width="70" height="10"></rect><rect x="290" y="40" width="10" height="10"></rect><rect x="330" y="40" width="10" height="10"></rect><rect x="360" y="40" width="10" height="10"></rect><rect x="420" y="40" width="10" height="10"></rect><rect x="440" y="40" width="30" height="10"></rect><rect x="480" y="40" width="10" height="10"></rect><rect x="0" y="50" width="10" height="10"></rect><rect x="60" y="50" width="10" height="10"></rect><rect x="90" y="50" width="20" height="10"></rect><rect x="130" y="50" width="10" height="10"></rect><rect x="150" y="50" width="20" height="10"></rect><rect x="180" y="50" width="10" height="10"></rect><rect x="210" y="50" width="20" height="10"></rect><rect x="260" y="50" width="30" height="10"></rect><rect x="300" y="50" width="70" height="10"></rect><rect x="380" y="50" width="10" height="10"></rect><rect x="420" y="50" width="10" height="10"></rect><rect x="480" y="50" width="10" height="10"></rect><rect x="0" y="60" width="70" height="10"></rect><rect x="80" y="60" width="10" height="10"></rect><rect x="100" y="60" width="10" height="10"></rect><rect x="120" y="60" width="10" height="10"></rect><rect x="140" y="60" width="10" height="10"></rect><rect x="160" y="60" width="10" height="10"></rect><rect x="180" y="60" width="10" height="10"></rect><rect x="200" y="60" width="10" height="10"></rect><rect x="220" y="60" width="10" height="10"></rect><rect x="240" y="60" width="10" height="10"></rect><rect x="260" y="60" width="10" height="10"></rect><rect x="280" y="60" width="10" height="10"></rect><rect x="300" y="60" width="10" height="10"></rect><rect x="320" y="60" width="10" height="10"></rect><rect x="340" y="60" width="10" height="10"></rect><rect x="360" y="60" width="10" height="10"></rect><rect x="380" y="60" width="10" height="10"></rect><rect x="400" y="60" width="10" height="10"></rect><rect x="420" y="60" width="70" height="10"></rect><rect x="80" y="70" width="20" height="10"></rect><rect x="110" y="70" width="20" height="10"></rect><rect x="140" y="70" width="40" height="10"></rect><rect x="190" y="70" width="10" height="10"></rect><rect x="220" y="70" width="10" height="10"></rect><rect x="260" y="70" width="10" height="10"></rect><rect x="320" y="70" width="30" height="10"></rect><rect x="370" y="70" width="10" height="10"></rect><rect x="390" y="70" width="20" height="10"></rect><rect x="20" y="80" width="20" height="10"></rect><rect x="60" y="80" width="30" height="10"></rect><rect x="120" y="80" width="10" height="10"></rect><rect x="140" y="80" width="30" height="10"></rect><rect x="180" y="80" width="20" height="10"></rect><rect x="220" y="80" width="60" height="10"></rect><rect x="330" y="80" width="20" height="10"></rect><rect x="390" y="80" width="10" height="10"></rect><rect x="410" y="80" width="20" height="10"></rect><rect x="440" y="80" width="10" height="10"></rect><rect x="10" y="90" width="10" height="10"></rect><rect x="30" y="90" width="10" height="10"></rect><rect x="50" y="90" width="10" height="10"></rect><rect x="80" y="90" width="10" height="10"></rect><rect x="110" y="90" width="40" height="10"></rect><rect x="160" y="90" width="70" height="10"></rect><rect x="290" y="90" width="20" height="10"></rect><rect x="320" y="90" width="10" height="10"></rect><rect x="350" y="90" width="20" height="10"></rect><rect x="390" y="90" width="10" height="10"></rect><rect x="410" y="90" width="20" height="10"></rect><rect x="440" y="90" width="10" height="10"></rect><rect x="470" y="90" width="20" height="10"></rect><rect x="0" y="100" width="40" height="10"></rect><rect x="60" y="100" width="20" height="10"></rect><rect x="100" y="100" width="10" height="10"></rect><rect x="130" y="100" width="20" height="10"></rect><rect x="180" y="100" width="50" height="10"></rect><rect x="270" y="100" width="30" height="10"></rect><rect x="330" y="100" width="30" height="10"></rect><rect x="370" y="100" width="10" height="10"></rect><rect x="390" y="100" width="80" height="10"></rect><rect x="0" y="110" width="10" height="10"></rect><rect x="20" y="110" width="20" height="10"></rect><rect x="50" y="110" width="10" height="10"></rect><rect x="70" y="110" width="30" height="10"></rect><rect x="110" y="110" width="20" height="10"></rect><rect x="170" y="110" width="10" height="10"></rect><rect x="210" y="110" width="10" height="10"></rect><rect x="240" y="110" width="20" height="10"></rect><rect x="290" y="110" width="30" height="10"></rect><rect x="350" y="110" width="30" height="10"></rect><rect x="400" y="110" width="10" height="10"></rect><rect x="440" y="110" width="10" height="10"></rect><rect x="460" y="110" width="20" height="10"></rect><rect x="0" y="120" width="10" height="10"></rect><rect x="40" y="120" width="30" height="10"></rect><rect x="80" y="120" width="20" height="10"></rect><rect x="130" y="120" width="20" height="10"></rect><rect x="160" y="120" width="10" height="10"></rect><rect x="180" y="120" width="10" height="10"></rect><rect x="200" y="120" width="10" height="10"></rect><rect x="220" y="120" width="10" height="10"></rect><rect x="260" y="120" width="10" height="10"></rect><rect x="310" y="120" width="20" height="10"></rect><rect x="360" y="120" width="10" height="10"></rect><rect x="390" y="120" width="30" height="10"></rect><rect x="430" y="120" width="10" height="10"></rect><rect x="460" y="120" width="10" height="10"></rect><rect x="0" y="130" width="20" height="10"></rect><rect x="30" y="130" width="10" height="10"></rect><rect x="100" y="130" width="10" height="10"></rect><rect x="140" y="130" width="10" height="10"></rect><rect x="160" y="130" width="10" height="10"></rect><rect x="180" y="130" width="20" height="10"></rect><rect x="210" y="130" width="30" height="10"></rect><rect x="250" y="130" width="40" height="10"></rect><rect x="320" y="130" width="10" height="10"></rect><rect x="350" y="130" width="10" height="10"></rect><rect x="370" y="130" width="20" height="10"></rect><rect x="440" y="130" width="30" height="10"></rect><rect x="480" y="130" width="10" height="10"></rect><rect x="0" y="140" width="20" height="10"></rect><rect x="30" y="140" width="10" height="10"></rect><rect x="60" y="140" width="20" height="10"></rect><rect x="120" y="140" width="30" height="10"></rect><rect x="160" y="140" width="10" height="10"></rect><rect x="200" y="140" width="10" height="10"></rect><rect x="220" y="140" width="50" height="10"></rect><rect x="280" y="140" width="20" height="10"></rect><rect x="310" y="140" width="10" height="10"></rect><rect x="340" y="140" width="10" height="10"></rect><rect x="370" y="140" width="20" height="10"></rect><rect x="410" y="140" width="30" height="10"></rect><rect x="40" y="150" width="20" height="10"></rect><rect x="80" y="150" width="10" height="10"></rect><rect x="110" y="150" width="10" height="10"></rect><rect x="130" y="150" width="50" height="10"></rect><rect x="190" y="150" width="30" height="10"></rect><rect x="230" y="150" width="10" height="10"></rect><rect x="250" y="150" width="20" height="10"></rect><rect x="290" y="150" width="10" height="10"></rect><rect x="310" y="150" width="10" height="10"></rect><rect x="340" y="150" width="10" height="10"></rect><rect x="370" y="150" width="40" height="10"></rect><rect x="420" y="150" width="10" height="10"></rect><rect x="440" y="150" width="10" height="10"></rect><rect x="460" y="150" width="30" height="10"></rect><rect x="30" y="160" width="40" height="10"></rect><rect x="110" y="160" width="30" height="10"></rect><rect x="160" y="160" width="30" height="10"></rect><rect x="200" y="160" width="10" height="10"></rect><rect x="220" y="160" width="20" height="10"></rect><rect x="280" y="160" width="50" height="10"></rect><rect x="340" y="160" width="10" height="10"></rect><rect x="390" y="160" width="10" height="10"></rect><rect x="440" y="160" width="10" height="10"></rect><rect x="10" y="170" width="10" height="10"></rect><rect x="40" y="170" width="20" height="10"></rect><rect x="80" y="170" width="70" height="10"></rect><rect x="170" y="170" width="20" height="10"></rect><rect x="210" y="170" width="20" height="10"></rect><rect x="290" y="170" width="30" height="10"></rect><rect x="330" y="170" width="10" height="10"></rect><rect x="350" y="170" width="10" height="10"></rect><rect x="380" y="170" width="10" height="10"></rect><rect x="400" y="170" width="10" height="10"></rect><rect x="430" y="170" width="20" height="10"></rect><rect x="470" y="170" width="20" height="10"></rect><rect x="0" y="180" width="20" height="10"></rect><rect x="50" y="180" width="20" height="10"></rect><rect x="110" y="180" width="40" height="10"></rect><rect x="160" y="180" width="10" height="10"></rect><rect x="190" y="180" width="10" height="10"></rect><rect x="210" y="180" width="10" height="10"></rect><rect x="240" y="180" width="10" height="10"></rect><rect x="280" y="180" width="10" height="10"></rect><rect x="300" y="180" width="20" height="10"></rect><rect x="330" y="180" width="10" height="10"></rect><rect x="410" y="180" width="20" height="10"></rect><rect x="440" y="180" width="20" height="10"></rect><rect x="470" y="180" width="20" height="10"></rect><rect x="90" y="190" width="10" height="10"></rect><rect x="110" y="190" width="40" height="10"></rect><rect x="160" y="190" width="10" height="10"></rect><rect x="190" y="190" width="20" height="10"></rect><rect x="230" y="190" width="20" height="10"></rect><rect x="260" y="190" width="10" height="10"></rect><rect x="280" y="190" width="20" height="10"></rect><rect x="310" y="190" width="40" height="10"></rect><rect x="360" y="190" width="20" height="10"></rect><rect x="410" y="190" width="10" height="10"></rect><rect x="430" y="190" width="10" height="10"></rect><rect x="450" y="190" width="10" height="10"></rect><rect x="0" y="200" width="10" height="10"></rect><rect x="20" y="200" width="10" height="10"></rect><rect x="40" y="200" width="30" height="10"></rect><rect x="80" y="200" width="20" height="10"></rect><rect x="110" y="200" width="10" height="10"></rect><rect x="130" y="200" width="20" height="10"></rect><rect x="170" y="200" width="40" height="10"></rect><rect x="220" y="200" width="10" height="10"></rect><rect x="280" y="200" width="10" height="10"></rect><rect x="300" y="200" width="10" height="10"></rect><rect x="330" y="200" width="10" height="10"></rect><rect x="380" y="200" width="20" height="10"></rect><rect x="450" y="200" width="10" height="10"></rect><rect x="470" y="200" width="10" height="10"></rect><rect x="0" y="210" width="10" height="10"></rect><rect x="20" y="210" width="10" height="10"></rect><rect x="50" y="210" width="10" height="10"></rect><rect x="70" y="210" width="20" height="10"></rect><rect x="100" y="210" width="10" height="10"></rect><rect x="120" y="210" width="20" height="10"></rect><rect x="160" y="210" width="10" height="10"></rect><rect x="180" y="210" width="10" height="10"></rect><rect x="210" y="210" width="10" height="10"></rect><rect x="230" y="210" width="20" height="10"></rect><rect x="270" y="210" width="10" height="10"></rect><rect x="310" y="210" width="10" height="10"></rect><rect x="360" y="210" width="10" height="10"></rect><rect x="390" y="210" width="10" height="10"></rect><rect x="410" y="210" width="20" height="10"></rect><rect x="450" y="210" width="10" height="10"></rect><rect x="0" y="220" width="20" height="10"></rect><rect x="40" y="220" width="50" height="10"></rect><rect x="100" y="220" width="10" height="10"></rect><rect x="130" y="220" width="10" height="10"></rect><rect x="160" y="220" width="30" height="10"></rect><rect x="220" y="220" width="60" height="10"></rect><rect x="290" y="220" width="40" height="10"></rect><rect x="340" y="220" width="20" height="10"></rect><rect x="400" y="220" width="70" height="10"></rect><rect x="20" y="230" width="30" height="10"></rect><rect x="80" y="230" width="10" height="10"></rect><rect x="100" y="230" width="10" height="10"></rect><rect x="130" y="230" width="20" height="10"></rect><rect x="160" y="230" width="10" height="10"></rect><rect x="180" y="230" width="10" height="10"></rect><rect x="220" y="230" width="10" height="10"></rect><rect x="260" y="230" width="30" height="10"></rect><rect x="300" y="230" width="10" height="10"></rect><rect x="330" y="230" width="40" height="10"></rect><rect x="400" y="230" width="10" height="10"></rect><rect x="440" y="230" width="10" height="10"></rect><rect x="460" y="230" width="10" height="10"></rect><rect x="480" y="230" width="10" height="10"></rect><rect x="20" y="240" width="30" height="10"></rect><rect x="60" y="240" width="10" height="10"></rect><rect x="80" y="240" width="10" height="10"></rect><rect x="100" y="240" width="20" height="10"></rect><rect x="160" y="240" width="70" height="10"></rect><rect x="240" y="240" width="10" height="10"></rect><rect x="260" y="240" width="10" height="10"></rect><rect x="290" y="240" width="10" height="10"></rect><rect x="330" y="240" width="20" height="10"></rect><rect x="360" y="240" width="10" height="10"></rect><rect x="390" y="240" width="20" height="10"></rect><rect x="420" y="240" width="10" height="10"></rect><rect x="440" y="240" width="30" height="10"></rect><rect x="480" y="240" width="10" height="10"></rect><rect x="10" y="250" width="20" height="10"></rect><rect x="40" y="250" width="10" height="10"></rect><rect x="80" y="250" width="10" height="10"></rect><rect x="100" y="250" width="10" height="10"></rect><rect x="120" y="250" width="10" height="10"></rect><rect x="150" y="250" width="20" height="10"></rect><rect x="220" y="250" width="10" height="10"></rect><rect x="260" y="250" width="20" height="10"></rect><rect x="290" y="250" width="10" height="10"></rect><rect x="310" y="250" width="20" height="10"></rect><rect x="350" y="250" width="10" height="10"></rect><rect x="380" y="250" width="30" height="10"></rect><rect x="440" y="250" width="20" height="10"></rect><rect x="40" y="260" width="60" height="10"></rect><rect x="120" y="260" width="40" height="10"></rect><rect x="190" y="260" width="90" height="10"></rect><rect x="310" y="260" width="10" height="10"></rect><rect x="330" y="260" width="10" height="10"></rect><rect x="350" y="260" width="10" height="10"></rect><rect x="380" y="260" width="10" height="10"></rect><rect x="400" y="260" width="60" height="10"></rect><rect x="0" y="270" width="30" height="10"></rect><rect x="40" y="270" width="20" height="10"></rect><rect x="70" y="270" width="30" height="10"></rect><rect x="150" y="270" width="10" height="10"></rect><rect x="180" y="270" width="20" height="10"></rect><rect x="210" y="270" width="10" height="10"></rect><rect x="230" y="270" width="10" height="10"></rect><rect x="260" y="270" width="30" height="10"></rect><rect x="300" y="270" width="10" height="10"></rect><rect x="400" y="270" width="20" height="10"></rect><rect x="430" y="270" width="10" height="10"></rect><rect x="450" y="270" width="10" height="10"></rect><rect x="470" y="270" width="20" height="10"></rect><rect x="10" y="280" width="20" height="10"></rect><rect x="50" y="280" width="30" height="10"></rect><rect x="120" y="280" width="10" height="10"></rect><rect x="140" y="280" width="50" height="10"></rect><rect x="200" y="280" width="10" height="10"></rect><rect x="220" y="280" width="10" height="10"></rect><rect x="240" y="280" width="10" height="10"></rect><rect x="260" y="280" width="10" height="10"></rect><rect x="280" y="280" width="10" height="10"></rect><rect x="300" y="280" width="20" height="10"></rect><rect x="330" y="280" width="10" height="10"></rect><rect x="370" y="280" width="20" height="10"></rect><rect x="400" y="280" width="10" height="10"></rect><rect x="420" y="280" width="10" height="10"></rect><rect x="440" y="280" width="40" height="10"></rect><rect x="0" y="290" width="10" height="10"></rect><rect x="20" y="290" width="10" height="10"></rect><rect x="50" y="290" width="10" height="10"></rect><rect x="70" y="290" width="20" height="10"></rect><rect x="100" y="290" width="10" height="10"></rect><rect x="120" y="290" width="10" height="10"></rect><rect x="160" y="290" width="10" height="10"></rect><rect x="190" y="290" width="10" height="10"></rect><rect x="210" y="290" width="10" height="10"></rect><rect x="230" y="290" width="10" height="10"></rect><rect x="270" y="290" width="20" height="10"></rect><rect x="300" y="290" width="30" height="10"></rect><rect x="340" y="290" width="10" height="10"></rect><rect x="360" y="290" width="20" height="10"></rect><rect x="400" y="290" width="30" height="10"></rect><rect x="440" y="290" width="10" height="10"></rect><rect x="460" y="290" width="20" height="10"></rect><rect x="20" y="300" width="10" height="10"></rect><rect x="50" y="300" width="30" height="10"></rect><rect x="100" y="300" width="40" height="10"></rect><rect x="150" y="300" width="20" height="10"></rect><rect x="180" y="300" width="10" height="10"></rect><rect x="230" y="300" width="10" height="10"></rect><rect x="250" y="300" width="40" height="10"></rect><rect x="300" y="300" width="30" height="10"></rect><rect x="340" y="300" width="10" height="10"></rect><rect x="370" y="300" width="40" height="10"></rect><rect x="420" y="300" width="10" height="10"></rect><rect x="440" y="300" width="50" height="10"></rect><rect x="0" y="310" width="10" height="10"></rect><rect x="20" y="310" width="10" height="10"></rect><rect x="40" y="310" width="20" height="10"></rect><rect x="90" y="310" width="20" height="10"></rect><rect x="120" y="310" width="10" height="10"></rect><rect x="140" y="310" width="10" height="10"></rect><rect x="160" y="310" width="20" height="10"></rect><rect x="190" y="310" width="20" height="10"></rect><rect x="220" y="310" width="10" height="10"></rect><rect x="240" y="310" width="20" height="10"></rect><rect x="280" y="310" width="10" height="10"></rect><rect x="300" y="310" width="10" height="10"></rect><rect x="320" y="310" width="10" height="10"></rect><rect x="340" y="310" width="20" height="10"></rect><rect x="380" y="310" width="20" height="10"></rect><rect x="420" y="310" width="20" height="10"></rect><rect x="450" y="310" width="10" height="10"></rect><rect x="470" y="310" width="10" height="10"></rect><rect x="30" y="320" width="50" height="10"></rect><rect x="130" y="320" width="10" height="10"></rect><rect x="150" y="320" width="20" height="10"></rect><rect x="180" y="320" width="20" height="10"></rect><rect x="230" y="320" width="30" height="10"></rect><rect x="270" y="320" width="40" height="10"></rect><rect x="320" y="320" width="10" height="10"></rect><rect x="340" y="320" width="30" height="10"></rect><rect x="400" y="320" width="20" height="10"></rect><rect x="430" y="320" width="20" height="10"></rect><rect x="460" y="320" width="20" height="10"></rect><rect x="0" y="330" width="20" height="10"></rect><rect x="80" y="330" width="10" height="10"></rect><rect x="140" y="330" width="10" height="10"></rect><rect x="210" y="330" width="10" height="10"></rect><rect x="240" y="330" width="10" height="10"></rect><rect x="260" y="330" width="20" height="10"></rect><rect x="290" y="330" width="10" height="10"></rect><rect x="320" y="330" width="10" height="10"></rect><rect x="370" y="330" width="10" height="10"></rect><rect x="390" y="330" width="30" height="10"></rect><rect x="430" y="330" width="10" height="10"></rect><rect x="450" y="330" width="20" height="10"></rect><rect x="480" y="330" width="10" height="10"></rect><rect x="0" y="340" width="10" height="10"></rect><rect x="20" y="340" width="50" height="10"></rect><rect x="80" y="340" width="20" height="10"></rect><rect x="110" y="340" width="10" height="10"></rect><rect x="150" y="340" width="20" height="10"></rect><rect x="180" y="340" width="20" height="10"></rect><rect x="210" y="340" width="10" height="10"></rect><rect x="240" y="340" width="10" height="10"></rect><rect x="290" y="340" width="30" height="10"></rect><rect x="340" y="340" width="10" height="10"></rect><rect x="360" y="340" width="10" height="10"></rect><rect x="380" y="340" width="10" height="10"></rect><rect x="400" y="340" width="10" height="10"></rect><rect x="450" y="340" width="10" height="10"></rect><rect x="40" y="350" width="10" height="10"></rect><rect x="80" y="350" width="10" height="10"></rect><rect x="100" y="350" width="30" height="10"></rect><rect x="140" y="350" width="10" height="10"></rect><rect x="160" y="350" width="20" height="10"></rect><rect x="210" y="350" width="30" height="10"></rect><rect x="280" y="350" width="20" height="10"></rect><rect x="330" y="350" width="10" height="10"></rect><rect x="350" y="350" width="20" height="10"></rect><rect x="390" y="350" width="20" height="10"></rect><rect x="420" y="350" width="20" height="10"></rect><rect x="450" y="350" width="20" height="10"></rect><rect x="480" y="350" width="10" height="10"></rect><rect x="10" y="360" width="40" height="10"></rect><rect x="60" y="360" width="10" height="10"></rect><rect x="80" y="360" width="10" height="10"></rect><rect x="100" y="360" width="20" height="10"></rect><rect x="140" y="360" width="10" height="10"></rect><rect x="170" y="360" width="20" height="10"></rect><rect x="220" y="360" width="20" height="10"></rect><rect x="250" y="360" width="10" height="10"></rect><rect x="270" y="360" width="30" height="10"></rect><rect x="330" y="360" width="20" height="10"></rect><rect x="360" y="360" width="10" height="10"></rect><rect x="390" y="360" width="20" height="10"></rect><rect x="10" y="370" width="30" height="10"></rect><rect x="110" y="370" width="20" height="10"></rect><rect x="160" y="370" width="10" height="10"></rect><rect x="200" y="370" width="10" height="10"></rect><rect x="220" y="370" width="10" height="10"></rect><rect x="240" y="370" width="20" height="10"></rect><rect x="270" y="370" width="10" height="10"></rect><rect x="290" y="370" width="10" height="10"></rect><rect x="310" y="370" width="80" height="10"></rect><rect x="420" y="370" width="30" height="10"></rect><rect x="480" y="370" width="10" height="10"></rect><rect x="10" y="380" width="10" height="10"></rect><rect x="50" y="380" width="30" height="10"></rect><rect x="90" y="380" width="10" height="10"></rect><rect x="110" y="380" width="10" height="10"></rect><rect x="140" y="380" width="10" height="10"></rect><rect x="180" y="380" width="40" height="10"></rect><rect x="240" y="380" width="50" height="10"></rect><rect x="300" y="380" width="20" height="10"></rect><rect x="340" y="380" width="10" height="10"></rect><rect x="360" y="380" width="10" height="10"></rect><rect x="380" y="380" width="20" height="10"></rect><rect x="410" y="380" width="10" height="10"></rect><rect x="430" y="380" width="10" height="10"></rect><rect x="450" y="380" width="20" height="10"></rect><rect x="10" y="390" width="30" height="10"></rect><rect x="80" y="390" width="50" height="10"></rect><rect x="140" y="390" width="30" height="10"></rect><rect x="190" y="390" width="20" height="10"></rect><rect x="220" y="390" width="20" height="10"></rect><rect x="260" y="390" width="10" height="10"></rect><rect x="300" y="390" width="20" height="10"></rect><rect x="330" y="390" width="10" height="10"></rect><rect x="350" y="390" width="20" height="10"></rect><rect x="440" y="390" width="20" height="10"></rect><rect x="0" y="400" width="30" height="10"></rect><rect x="60" y="400" width="50" height="10"></rect><rect x="120" y="400" width="10" height="10"></rect><rect x="170" y="400" width="40" height="10"></rect><rect x="220" y="400" width="50" height="10"></rect><rect x="290" y="400" width="10" height="10"></rect><rect x="310" y="400" width="30" height="10"></rect><rect x="370" y="400" width="20" height="10"></rect><rect x="400" y="400" width="60" height="10"></rect><rect x="80" y="410" width="10" height="10"></rect><rect x="100" y="410" width="20" height="10"></rect><rect x="130" y="410" width="30" height="10"></rect><rect x="210" y="410" width="20" height="10"></rect><rect x="260" y="410" width="10" height="10"></rect><rect x="290" y="410" width="10" height="10"></rect><rect x="320" y="410" width="10" height="10"></rect><rect x="340" y="410" width="20" height="10"></rect><rect x="370" y="410" width="10" height="10"></rect><rect x="390" y="410" width="20" height="10"></rect><rect x="440" y="410" width="50" height="10"></rect><rect x="0" y="420" width="70" height="10"></rect><rect x="80" y="420" width="30" height="10"></rect><rect x="120" y="420" width="10" height="10"></rect><rect x="150" y="420" width="10" height="10"></rect><rect x="190" y="420" width="40" height="10"></rect><rect x="240" y="420" width="10" height="10"></rect><rect x="260" y="420" width="30" height="10"></rect><rect x="310" y="420" width="20" height="10"></rect><rect x="350" y="420" width="10" height="10"></rect><rect x="370" y="420" width="10" height="10"></rect><rect x="400" y="420" width="10" height="10"></rect><rect x="420" y="420" width="10" height="10"></rect><rect x="440" y="420" width="20" height="10"></rect><rect x="470" y="420" width="20" height="10"></rect><rect x="0" y="430" width="10" height="10"></rect><rect x="60" y="430" width="10" height="10"></rect><rect x="110" y="430" width="30" height="10"></rect><rect x="150" y="430" width="10" height="10"></rect><rect x="190" y="430" width="10" height="10"></rect><rect x="210" y="430" width="20" height="10"></rect><rect x="260" y="430" width="20" height="10"></rect><rect x="310" y="430" width="40" height="10"></rect><rect x="360" y="430" width="20" height="10"></rect><rect x="400" y="430" width="10" height="10"></rect><rect x="440" y="430" width="20" height="10"></rect><rect x="470" y="430" width="20" height="10"></rect><rect x="0" y="440" width="10" height="10"></rect><rect x="20" y="440" width="30" height="10"></rect><rect x="60" y="440" width="10" height="10"></rect><rect x="110" y="440" width="50" height="10"></rect><rect x="170" y="440" width="20" height="10"></rect><rect x="220" y="440" width="50" height="10"></rect><rect x="300" y="440" width="10" height="10"></rect><rect x="330" y="440" width="30" height="10"></rect><rect x="380" y="440" width="10" height="10"></rect><rect x="400" y="440" width="60" height="10"></rect><rect x="470" y="440" width="20" height="10"></rect><rect x="0" y="450" width="10" height="10"></rect><rect x="20" y="450" width="30" height="10"></rect><rect x="60" y="450" width="10" height="10"></rect><rect x="80" y="450" width="10" height="10"></rect><rect x="100" y="450" width="20" height="10"></rect><rect x="130" y="450" width="10" height="10"></rect><rect x="150" y="450" width="10" height="10"></rect><rect x="190" y="450" width="20" height="10"></rect><rect x="230" y="450" width="10" height="10"></rect><rect x="260" y="450" width="10" height="10"></rect><rect x="280" y="450" width="60" height="10"></rect><rect x="350" y="450" width="10" height="10"></rect><rect x="370" y="450" width="10" height="10"></rect><rect x="390" y="450" width="10" height="10"></rect><rect x="430" y="450" width="20" height="10"></rect><rect x="460" y="450" width="10" height="10"></rect><rect x="480" y="450" width="10" height="10"></rect><rect x="0" y="460" width="10" height="10"></rect><rect x="20" y="460" width="30" height="10"></rect><rect x="60" y="460" width="10" height="10"></rect><rect x="80" y="460" width="40" height="10"></rect><rect x="130" y="460" width="20" height="10"></rect><rect x="170" y="460" width="10" height="10"></rect><rect x="190" y="460" width="10" height="10"></rect><rect x="220" y="460" width="10" height="10"></rect><rect x="280" y="460" width="10" height="10"></rect><rect x="300" y="460" width="10" height="10"></rect><rect x="320" y="460" width="10" height="10"></rect><rect x="340" y="460" width="20" height="10"></rect><rect x="370" y="460" width="10" height="10"></rect><rect x="390" y="460" width="20" height="10"></rect><rect x="430" y="460" width="40" height="10"></rect><rect x="0" y="470" width="10" height="10"></rect><rect x="60" y="470" width="10" height="10"></rect><rect x="110" y="470" width="10" height="10"></rect><rect x="130" y="470" width="30" height="10"></rect><rect x="180" y="470" width="10" height="10"></rect><rect x="200" y="470" width="30" height="10"></rect><rect x="260" y="470" width="10" height="10"></rect><rect x="290" y="470" width="10" height="10"></rect><rect x="320" y="470" width="10" height="10"></rect><rect x="340" y="470" width="40" height="10"></rect><rect x="440" y="470" width="30" height="10"></rect><rect x="0" y="480" width="70" height="10"></rect><rect x="90" y="480" width="10" height="10"></rect><rect x="110" y="480" width="20" height="10"></rect><rect x="160" y="480" width="10" height="10"></rect><rect x="190" y="480" width="10" height="10"></rect><rect x="220" y="480" width="30" height="10"></rect><rect x="260" y="480" width="10" height="10"></rect><rect x="280" y="480" width="30" height="10"></rect><rect x="360" y="480" width="30" height="10"></rect><rect x="400" y="480" width="20" height="10"></rect><rect x="430" y="480" width="60" height="10"></rect></svg>